<svg xmlns="http://www.w3.org/2000/svg" viewBox="0 48.41 327.48 369.59"><rect id="backgroundrect" width="100%" height="100%" x="0" y="0" fill="none" stroke="none"/><g class="currentLayer" style=""><title>Layer 1</title><path d="m117.633 330.784c5.681-14.31 44.125-111.203 44.125-111.203l-25.322 9.712 41.489-63.137 105.268-34.925-28.249 34.023 35.334-12.349z" fill="#001838" id="svg_1"/><path d="m181.335 170.836 78.413-25.991-28.505 34.307 30.87-10.64-125.655 129.512 35.776-90.145-20.363 7.77z" fill="#001838" id="svg_2"/><path d="m240.763 213.921-64.268 65.917h59.752v50.625c-13.703 5.8-22.674 7.908-36.907 7.908-23.104 0-43.993-7.313-60.306-20.03l-38.273 38.17 21.257-54.796c-12.84-17.66-21.291-42.71-21.291-68.285 0-55.899 37.967-97.035 90.175-97.035 13 0 24.892 1.854 36.493 6.232l74.045-24.084-26.078 32.668 39.686-14.239-25.83 26.48-3.224 3.335h35.3v-118.375h-55.808v17.488c-22.314-8.57-46.837-12.82-74.054-12.82-111.277-.002-191.432 77.516-191.432 186.148 0 105.472 76.998 178.772 187.74 178.772 52.207 0 99.14-14.242 139.745-42.185l-.015-161.894z" fill="#001838" id="svg_3"/><path d="m144.626 277.46 99.576-102.767-27.988 9.51 28.49-34.371-63.376 20.997-21.504 32.742 16.599-6.261z" fill="#001838" id="svg_4"/></g></svg>